<?xml version="1.0" encoding="UTF-8"?>
<!DOCTYPE svg PUBLIC "-//W3C//DTD SVG 1.1//EN" "http://www.w3.org/Graphics/SVG/1.1/DTD/svg11.dtd">
<svg xmlns="http://www.w3.org/2000/svg" version="1.1" width="500px" height="500px" style="shape-rendering:geometricPrecision; text-rendering:geometricPrecision; image-rendering:optimizeQuality; fill-rule:evenodd; clip-rule:evenodd" xmlns:xlink="http://www.w3.org/1999/xlink">
<g><path style="opacity:1" fill="#fefefe" d="M -0.5,-0.5 C 166.167,-0.5 332.833,-0.5 499.5,-0.5C 499.5,166.167 499.5,332.833 499.5,499.5C 332.833,499.5 166.167,499.5 -0.5,499.5C -0.5,332.833 -0.5,166.167 -0.5,-0.5 Z"/></g>
<g><path style="opacity:1" fill="#343434" d="M 254.5,156.5 C 270.167,156.5 285.833,156.5 301.5,156.5C 301.5,157.5 301.5,158.5 301.5,159.5C 299.5,159.5 297.5,159.5 295.5,159.5C 296.952,158.698 298.618,158.198 300.5,158C 284.995,157.831 269.661,157.331 254.5,156.5 Z"/></g>
<g><path style="opacity:1" fill="#353535" d="M 339.5,157.5 C 348.986,156.506 358.652,156.173 368.5,156.5C 368.5,157.5 368.5,158.5 368.5,159.5C 367.167,159.5 365.833,159.5 364.5,159.5C 365.263,158.732 366.263,158.232 367.5,158C 358.173,157.5 348.839,157.334 339.5,157.5 Z"/></g>
<g><path style="opacity:1" fill="#070707" d="M 254.5,156.5 C 269.661,157.331 284.995,157.831 300.5,158C 298.618,158.198 296.952,158.698 295.5,159.5C 291.808,158.971 288.642,159.971 286,162.5C 285.333,164.167 285.333,165.833 286,167.5C 296.807,190.253 307.807,212.92 319,235.5C 329.527,212.918 339.86,190.251 350,167.5C 350.758,165.231 350.591,163.064 349.5,161C 345.726,160.432 342.393,159.265 339.5,157.5C 348.839,157.334 358.173,157.5 367.5,158C 366.263,158.232 365.263,158.732 364.5,159.5C 360.574,159.047 357.408,160.38 355,163.5C 343.881,187.403 333.047,211.403 322.5,235.5C 313.584,236.471 304.584,236.804 295.5,236.5C 284.347,213.526 273.18,190.526 262,167.5C 260.261,164.093 257.594,161.76 254,160.5C 252.739,160.759 251.739,161.426 251,162.5C 235.698,187.3 220.198,211.967 204.5,236.5C 195.853,237.665 187.186,237.832 178.5,237C 195.56,211.603 212.227,185.936 228.5,160C 213.833,159.333 199.167,159.333 184.5,160C 166.413,163.749 153.246,173.916 145,190.5C 141.833,196.833 138.667,203.167 135.5,209.5C 134.635,210.583 133.635,210.749 132.5,210C 139.5,192.333 146.5,174.667 153.5,157C 187.165,156.5 220.832,156.333 254.5,156.5 Z"/></g>
<g><path style="opacity:1" fill="#5e5e5e" d="M 322.5,235.5 C 318.386,236.826 313.886,237.493 309,237.5C 304.32,237.499 299.82,237.166 295.5,236.5C 304.584,236.804 313.584,236.471 322.5,235.5 Z"/></g>
<g><path style="opacity:1" fill="#939393" d="M 134.5,243.5 C 134.062,242.494 133.396,242.494 132.5,243.5C 130.511,242.113 128.678,242.447 127,244.5C 126.383,243.551 126.549,242.718 127.5,242C 130.227,241.182 132.894,241.348 135.5,242.5C 135.376,243.107 135.043,243.44 134.5,243.5 Z"/></g>
<g><path style="opacity:1" fill="#3a3a3a" d="M 194.5,241.5 C 195.794,243.048 196.461,245.048 196.5,247.5C 196.167,249.5 195.833,251.5 195.5,253.5C 194.509,249.555 194.176,245.555 194.5,241.5 Z"/></g>
<g><path style="opacity:1" fill="#232323" d="M 273.5,242.5 C 274.209,241.596 275.209,241.263 276.5,241.5C 278.167,245.339 278.667,249.339 278,253.5C 277.566,249.312 276.066,245.645 273.5,242.5 Z"/></g>
<g><path style="opacity:1" fill="#393939" d="M 379.5,241.5 C 380.794,243.048 381.461,245.048 381.5,247.5C 381.167,249.5 380.833,251.5 380.5,253.5C 379.509,249.555 379.176,245.555 379.5,241.5 Z"/></g>
<g><path style="opacity:1" fill="#7b7b7b" d="M 298.5,246.5 C 300.42,245.06 302.087,245.393 303.5,247.5C 303.167,247.833 302.833,248.167 302.5,248.5C 301.476,247.147 300.143,246.48 298.5,246.5 Z"/></g>
<g><path style="opacity:1" fill="#0b0b0b" d="M 320.5,253.5 C 319.508,253.672 318.842,253.338 318.5,252.5C 319.309,250.708 319.809,248.708 320,246.5C 320.497,248.81 320.663,251.143 320.5,253.5 Z"/></g>
<g><path style="opacity:1" fill="#565656" d="M 344.5,246.5 C 345.386,245.224 346.386,245.224 347.5,246.5C 346.767,247.087 345.767,247.087 344.5,246.5 Z"/></g>
<g><path style="opacity:1" fill="#0c0c0c" d="M 364.5,252.5 C 364.158,253.338 363.492,253.672 362.5,253.5C 362.337,251.143 362.503,248.81 363,246.5C 363.191,248.708 363.691,250.708 364.5,252.5 Z"/></g>
<g><path style="opacity:1" fill="#a0a0a0" d="M 364.5,252.5 C 363.691,250.708 363.191,248.708 363,246.5C 362.503,248.81 362.337,251.143 362.5,253.5C 361.527,251.052 361.194,248.385 361.5,245.5C 362.5,245.5 363.5,245.5 364.5,245.5C 364.5,247.833 364.5,250.167 364.5,252.5 Z"/></g>
<g><path style="opacity:1" fill="#1c1c1c" d="M 134.5,243.5 C 132.568,246.366 130.901,249.366 129.5,252.5C 128.833,252.5 128.5,252.833 128.5,253.5C 127.761,253.631 127.094,253.464 126.5,253C 128.636,249.89 130.636,246.723 132.5,243.5C 133.396,242.494 134.062,242.494 134.5,243.5 Z"/></g>
<g><path style="opacity:1" fill="#232323" d="M 234.5,246.5 C 235.725,247.152 236.392,248.319 236.5,250C 236.167,251.167 235.833,252.333 235.5,253.5C 234.526,251.257 234.192,248.924 234.5,246.5 Z"/></g>
<g><path style="opacity:1" fill="#7e7e7e" d="M 320.5,253.5 C 320.663,251.143 320.497,248.81 320,246.5C 319.809,248.708 319.309,250.708 318.5,252.5C 318.5,250.167 318.5,247.833 318.5,245.5C 320.833,245.5 323.167,245.5 325.5,245.5C 325.353,255.277 324.353,255.611 322.5,246.5C 321.832,248.969 321.165,251.302 320.5,253.5 Z"/></g>
<g><path style="opacity:1" fill="#232323" d="M 151.5,247.5 C 151.232,249.099 151.566,250.432 152.5,251.5C 153.609,252.29 154.942,252.79 156.5,253C 150.986,254.327 149.319,252.493 151.5,247.5 Z"/></g>
<g><path style="opacity:1" fill="#2b2b2b" d="M 238.5,246.5 C 239.189,245.226 240.023,245.226 241,246.5C 241.814,248.902 241.647,251.235 240.5,253.5C 239.832,251.031 239.165,248.698 238.5,246.5 Z"/></g>
<g><path style="opacity:1" fill="#3d3d3d" d="M 340.5,246.5 C 341.209,245.596 342.209,245.263 343.5,245.5C 343.813,248.247 343.48,250.914 342.5,253.5C 341.832,251.031 341.165,248.698 340.5,246.5 Z"/></g>
<g><path style="opacity:1" fill="#818181" d="M 152.5,251.5 C 151.566,250.432 151.232,249.099 151.5,247.5C 151.791,246.351 152.624,245.684 154,245.5C 156.737,245.376 157.571,246.376 156.5,248.5C 155.476,247.147 154.143,246.48 152.5,246.5C 152.5,248.167 152.5,249.833 152.5,251.5 Z"/></g>
<g><path style="opacity:1" fill="#3f3f3f" d="M 171.5,242.5 C 172.209,241.596 173.209,241.263 174.5,241.5C 173.973,246.345 175.64,250.178 179.5,253C 179.167,253.167 178.833,253.333 178.5,253.5C 177.108,252.395 175.941,251.061 175,249.5C 174.781,250.938 174.281,252.271 173.5,253.5C 172.833,249.687 172.166,246.021 171.5,242.5 Z"/></g>
<g><path style="opacity:1" fill="#262626" d="M 211.5,246.5 C 212.077,245.227 212.743,245.227 213.5,246.5C 214.248,248.332 215.248,249.999 216.5,251.5C 216.167,251.833 215.833,252.167 215.5,252.5C 214.143,250.435 212.81,248.435 211.5,246.5 Z"/></g>
<g><path style="opacity:1" fill="#2f2f2f" d="M 298.5,246.5 C 297.637,250.162 298.97,252.328 302.5,253C 298,253.833 296.167,252 297,247.5C 297.383,246.944 297.883,246.611 298.5,246.5 Z"/></g>
<g><path style="opacity:1" fill="#292929" d="M 383.5,249.5 C 384.837,250.315 385.837,251.482 386.5,253C 384.522,252.967 383.522,251.8 383.5,249.5 Z"/></g>
<g><path style="opacity:1" fill="#8c8c8c" d="M 128.5,253.5 C 128.5,252.833 128.833,252.5 129.5,252.5C 131.78,252.254 133.78,252.254 135.5,252.5C 133.257,253.474 130.924,253.808 128.5,253.5 Z"/></g>
<g><path style="opacity:1" fill="#6b6b6b" d="M 210.5,256.5 C 211.601,255.402 212.934,255.235 214.5,256C 213.318,257.768 211.985,257.935 210.5,256.5 Z"/></g>
<g><path style="opacity:1" fill="#5f5f5f" d="M 162.5,262.5 C 171.009,261.179 179.675,261.179 188.5,262.5C 188.376,263.107 188.043,263.44 187.5,263.5C 179.35,262.507 171.017,262.174 162.5,262.5 Z"/></g>
<g><path style="opacity:1" fill="#050505" d="M 162.5,262.5 C 171.017,262.174 179.35,262.507 187.5,263.5C 180.167,275.167 172.833,286.833 165.5,298.5C 164.957,298.56 164.624,298.893 164.5,299.5C 178.328,300.826 191.994,300.826 205.5,299.5C 223.137,298.936 236.637,291.27 246,276.5C 248.333,271.833 250.667,267.167 253,262.5C 254.356,261.62 255.856,261.286 257.5,261.5C 254.015,275.107 250.682,288.774 247.5,302.5C 210.498,302.667 173.498,302.5 136.5,302C 145.301,288.89 153.968,275.724 162.5,262.5 Z"/></g>
<g><path style="opacity:1" fill="#020202" d="M 322.5,291.5 C 322.081,294.325 323.081,296.491 325.5,298C 328.688,299.316 332.022,299.816 335.5,299.5C 335.5,300.5 335.5,301.5 335.5,302.5C 319.167,302.5 302.833,302.5 286.5,302.5C 286.5,301.5 286.5,300.5 286.5,299.5C 289.941,299.699 293.274,299.199 296.5,298C 298.607,296.736 299.607,294.903 299.5,292.5C 300.494,282.681 300.827,272.681 300.5,262.5C 307.5,262.5 314.5,262.5 321.5,262.5C 321.173,272.348 321.506,282.014 322.5,291.5 Z"/></g>
<g><path style="opacity:1" fill="#7e7e7e" d="M 322.5,291.5 C 321.506,282.014 321.173,272.348 321.5,262.5C 314.5,262.5 307.5,262.5 300.5,262.5C 300.827,272.681 300.494,282.681 299.5,292.5C 299.5,282.167 299.5,271.833 299.5,261.5C 307.167,261.5 314.833,261.5 322.5,261.5C 322.5,271.5 322.5,281.5 322.5,291.5 Z"/></g>
<g><path style="opacity:1" fill="#656565" d="M 165.5,298.5 C 178.656,299.496 191.99,299.829 205.5,299.5C 191.994,300.826 178.328,300.826 164.5,299.5C 164.624,298.893 164.957,298.56 165.5,298.5 Z"/></g>
</svg>
